HIERARCHY
ROOT Hip
{
	OFFSET 0 1.131 0.0052
	CHANNELS 6 Xposition Yposition Zposition Xrotation Yrotation Zrotation
	JOINT Abdomen
	{
		OFFSET 0 -0.047353 -0.05
		CHANNELS 3 Xrotation Zrotation Yrotation
		JOINT Chest
		{
			OFFSET 0 0.132153 0.007439
			CHANNELS 3 Xrotation Zrotation Yrotation
			JOINT Neck
			{
				OFFSET 0 0.3078 0.006161
				CHANNELS 3 Xrotation Zrotation Yrotation
				JOINT Head_comp
				{
					OFFSET 0 0.0884 0.013
					CHANNELS 3 Xrotation Yrotation Zrotation
					End Site
					{
						OFFSET -0 0.156 0.0624
					}
				}
			}
			JOINT Left_Collar
			{
				OFFSET 0.02282 0.250342 0.017193
				CHANNELS 2 Yrotation Zrotation
				JOINT Left_Shoulder
				{
					OFFSET 0.15421 0 0
					CHANNELS 3 Xrotation Yrotation Zrotation
					JOINT Left_Forearm
					{
						OFFSET 0.265212 0 0
						CHANNELS 2 Yrotation Xrotation
						JOINT Left_Hand
						{
							OFFSET 0.27571 0 0
							CHANNELS 2 Zrotation Yrotation
							JOINT L1ProxPhalanx
							{
								OFFSET 0.014142 0.001733 0.014142
								CHANNELS 3 Yrotation Zrotation Xrotation
								JOINT L1MidPhalanx
								{
									OFFSET 0.04 0 0
									CHANNELS 1 Zrotation
									JOINT L1DistPhalanx
									{
										OFFSET 0.035 0 0
										CHANNELS 1 Zrotation
										End Site
										{
											OFFSET 0.029 -0 -0
										}
									}
								}
							}
							JOINT L2ProxPhalanx
							{
								OFFSET 0.0821037 0.001578 0.0219996
								CHANNELS 2 Yrotation Zrotation
								JOINT L2MidPhalanx
								{
									OFFSET 0.04 0 0
									CHANNELS 1 Zrotation
									JOINT L2DistPhalanx
									{
										OFFSET 0.028 0 0
										CHANNELS 1 Zrotation
										End Site
										{
											OFFSET 0.02 -0 -0
										}
									}
								}
							}
							JOINT L3ProxPhalanx
							{
								OFFSET 0.083 0 0
								CHANNELS 2 Yrotation Zrotation
								JOINT L3MidPhalanx
								{
									OFFSET 0.053 0 0
									CHANNELS 1 Zrotation
									JOINT L3DistPhalanx
									{
										OFFSET 0.03 0 0
										CHANNELS 1 Zrotation
										End Site
										{
											OFFSET 0.023 -0 -0
										}
									}
								}
							}
							JOINT L4ProxPhalanx
							{
								OFFSET 0.077274 -0.000761 -0.0207055
								CHANNELS 2 Yrotation Zrotation
								JOINT L4MidPhalanx
								{
									OFFSET 0.05 0 0
									CHANNELS 1 Zrotation
									JOINT L4DistPhalanx
									{
										OFFSET 0.03 0 0
										CHANNELS 1 Zrotation
										End Site
										{
											OFFSET 0.023 -0 -0
										}
									}
								}
							}
							JOINT L5ProxPhalanx
							{
								OFFSET 0.0675499 -0.001644 -0.039
								CHANNELS 2 Yrotation Zrotation
								JOINT L5MidPhalanx
								{
									OFFSET 0.04 0 0
									CHANNELS 1 Zrotation
									JOINT L5DistPhalanx
									{
										OFFSET 0.021 0 0
										CHANNELS 1 Zrotation
										End Site
										{
											OFFSET 0.022 -0 -0
										}
									}
								}
							}
						}
					}
				}
			}
			JOINT Right_Collar
			{
				OFFSET -0.02282 0.250342 0.017193
				CHANNELS 2 Yrotation Zrotation
				JOINT Right_Shoulder
				{
					OFFSET -0.15421 0 0
					CHANNELS 3 Xrotation Yrotation Zrotation
					JOINT Right_Forearm
					{
						OFFSET -0.265212 0 0
						CHANNELS 2 Yrotation Xrotation
						JOINT Right_Hand
						{
							OFFSET -0.27571 3e-006 0
							CHANNELS 2 Zrotation Yrotation
							JOINT R1ProxPhalanx
							{
								OFFSET -0.014142 0.001733 0.014142
								CHANNELS 3 Yrotation Zrotation Xrotation
								JOINT R1MidPhalanx
								{
									OFFSET -0.04 0 0
									CHANNELS 1 Zrotation
									JOINT R1DistPhalanx
									{
										OFFSET -0.035 0 0
										CHANNELS 1 Zrotation
										End Site
										{
											OFFSET -0.029 -0 -0
										}
									}
								}
							}
							JOINT R2ProxPhalanx
							{
								OFFSET -0.0821037 0.001578 0.0219996
								CHANNELS 2 Yrotation Zrotation
								JOINT R2MidPhalanx
								{
									OFFSET -0.04 0 0
									CHANNELS 1 Zrotation
									JOINT R2DistPhalanx
									{
										OFFSET -0.028 0 0
										CHANNELS 1 Zrotation
										End Site
										{
											OFFSET -0.02 -0 -0
										}
									}
								}
							}
							JOINT R3ProxPhalanx
							{
								OFFSET -0.083 0 0
								CHANNELS 2 Yrotation Zrotation
								JOINT R3MidPhalanx
								{
									OFFSET -0.053 0 0
									CHANNELS 1 Zrotation
									JOINT R3DistPhalanx
									{
										OFFSET -0.03 0 0
										CHANNELS 1 Zrotation
										End Site
										{
											OFFSET -0.023 -0 -0
										}
									}
								}
							}
							JOINT R4ProxPhalanx
							{
								OFFSET -0.077274 -0.000761 -0.0207055
								CHANNELS 2 Yrotation Zrotation
								JOINT R4MidPhalanx
								{
									OFFSET -0.05 0 0
									CHANNELS 1 Zrotation
									JOINT R4DistPhalanx
									{
										OFFSET -0.03 0 0
										CHANNELS 1 Zrotation
										End Site
										{
											OFFSET -0.023 -0 -0
										}
									}
								}
							}
							JOINT R5ProxPhalanx
							{
								OFFSET -0.0675499 -0.001644 -0.039
								CHANNELS 2 Yrotation Zrotation
								JOINT R5MidPhalanx
								{
									OFFSET -0.04 0 0
									CHANNELS 1 Zrotation
									JOINT R5DistPhalanx
									{
										OFFSET -0.021 0 0
										CHANNELS 1 Zrotation
										End Site
										{
											OFFSET -0.022 -0 -0
										}
									}
								}
							}
						}
					}
				}
			}
		}
	}
	JOINT Left_Thigh
	{
		OFFSET 0.1118 -0.1612 -0.0442
		CHANNELS 3 Xrotation Zrotation Yrotation
		JOINT Left_Shin
		{
			OFFSET 0 -0.477856 0
			CHANNELS 1 Xrotation
			JOINT Left_Foot
			{
				OFFSET 0 -0.431952 0
				CHANNELS 2 Xrotation Zrotation
				JOINT Left_Toe
				{
					OFFSET 0 -0.0442 0.119
					CHANNELS 1 Xrotation
					End Site
					{
						OFFSET -0 -0 0.07
					}
				}
			}
		}
	}
	JOINT Right_Thigh
	{
		OFFSET -0.1118 -0.1612 -0.0442
		CHANNELS 3 Xrotation Zrotation Yrotation
		JOINT Right_Shin
		{
			OFFSET 0 -0.477856 0
			CHANNELS 1 Xrotation
			JOINT Right_Foot
			{
				OFFSET 0 -0.431952 0
				CHANNELS 2 Xrotation Zrotation
				JOINT Right_Toe
				{
					OFFSET 0 -0.0442 0.119
					CHANNELS 1 Xrotation
					End Site
					{
						OFFSET -0 -0 0.07
					}
				}
			}
		}
	}
}
MOTION
Frames: 16
Frame Time: 0.008333
0.15448 0.97367 -0.277957 13.3893 4.5477 0.1414 -15.8759 -4.3417 -1.9720 -4.9602 0.1498 -2.6870 22.4844 6.6048 -6.7214 -19.1071 -7.6483 -1.7357 9.1420 -2.6050 -16.8095 -3.3130 -14.6292 -37.5432 -0.0000 10.8466 6.4302 0 0 0 0 0 0 0 0 0 0 0 0 0 0 0 0 0 0 0 0 0 -2.3895 5.3465 -22.9840 -5.0961 13.3919 25.6028 0.0000 -9.4709 -6.9764 0 0 0 0 0 0 0 0 0 0 0 0 0 0 0 0 0 0 0 0 0 -20.5044 5.2714 4.0992 27.5423 -20.4130 -8.6477 16.4060 -16.9642 -3.6950 -11.4288 19.8389 -24.3994 5.0394 24.5179
0.154473 0.97365 -0.27795 13.3831 4.5455 0.1355 -15.8722 -4.3367 -1.9701 -4.9612 0.1412 -2.6846 22.4743 6.6114 -6.7177 -19.0864 -7.6273 -1.7297 9.1352 -2.6018 -16.7685 -3.3358 -14.6255 -37.5189 0.0000 10.9135 6.4733 0 0 0 0 0 0 0 0 0 0 0 0 0 0 0 0 0 0 0 0 0 -2.3960 5.3429 -22.9682 -5.1145 13.4137 25.5966 0.0000 -9.4179 -7.0107 0 0 0 0 0 0 0 0 0 0 0 0 0 0 0 0 0 0 0 0 0 -20.5185 5.2920 4.1467 27.5851 -20.4121 -8.6462 16.3761 -16.9587 -3.6880 -11.4298 19.8417 -24.3985 5.0387 24.5094
0.154447 0.973665 -0.277952 13.3887 4.5482 0.1338 -15.8417 -4.3360 -1.9708 -5.0363 0.1378 -2.6830 22.5096 6.6083 -6.6911 -19.0770 -7.6193 -1.7297 9.1402 -2.6100 -16.7438 -3.3485 -14.6260 -37.5148 0.0000 10.9029 6.4789 0 0 0 0 0 0 0 0 0 0 0 0 0 0 0 0 0 0 0 0 0 -2.3723 5.4110 -22.8183 -5.1252 13.3029 25.5724 -0.0000 -9.4152 -7.0190 0 0 0 0 0 0 0 0 0 0 0 0 0 0 0 0 0 0 0 0 0 -20.5086 5.2812 4.0960 27.5521 -20.4108 -8.6480 16.4035 -16.9624 -3.6834 -11.4173 19.8378 -24.3922 5.0457 24.4735
0.15444 0.973665 -0.277937 13.3843 4.5507 0.1365 -15.8755 -4.3158 -1.9789 -4.9749 0.0814 -2.6902 22.5055 6.6199 -6.6743 -19.0860 -7.5847 -1.7102 9.1424 -2.5945 -16.7366 -3.3518 -14.6048 -37.4869 0.0000 10.9156 6.4961 0 0 0 0 0 0 0 0 0 0 0 0 0 0 0 0 0 0 0 0 0 -2.3913 5.4119 -22.9356 -5.0895 13.3816 25.5078 0.0000 -9.4169 -6.9970 0 0 0 0 0 0 0 0 0 0 0 0 0 0 0 0 0 0 0 0 0 -20.4994 5.2767 4.0895 27.5430 -20.4104 -8.6450 16.4138 -16.9550 -3.6862 -11.4205 19.8346 -24.3993 5.0446 24.5198
0.154417 0.973645 -0.277922 13.3860 4.5359 0.1302 -15.8895 -4.3260 -1.9648 -4.9499 0.0999 -2.6774 22.4720 6.6373 -6.6959 -19.0664 -7.5552 -1.7162 9.1388 -2.5871 -16.7403 -3.3566 -14.6265 -37.4836 0.0000 10.9074 6.4889 0 0 0 0 0 0 0 0 0 0 0 0 0 0 0 0 0 0 0 0 0 -2.4110 5.4155 -22.9468 -5.1043 13.3529 25.5243 -0.0000 -9.2515 -7.0243 0 0 0 0 0 0 0 0 0 0 0 0 0 0 0 0 0 0 0 0 0 -20.4981 5.2907 4.1090 27.5439 -20.4207 -8.6471 16.4060 -16.9562 -3.6737 -11.4031 19.8319 -24.3949 5.0525 24.4893
0.154396 0.973653 -0.277904 13.3901 4.5285 0.1292 -15.9046 -4.3383 -1.9654 -4.9473 0.1222 -2.6800 22.5002 6.6153 -6.6577 -19.0791 -7.5648 -1.7101 9.1388 -2.5991 -16.7390 -3.3479 -14.6239 -37.4737 0.0000 10.9046 6.4749 0 0 0 0 0 0 0 0 0 0 0 0 0 0 0 0 0 0 0 0 0 -2.3554 5.4779 -22.8015 -5.1349 13.2390 25.5279 0.0000 -9.2334 -7.0247 0 0 0 0 0 0 0 0 0 0 0 0 0 0 0 0 0 0 0 0 0 -20.4982 5.2943 4.1107 27.5412 -20.4224 -8.6551 16.4012 -16.9593 -3.6691 -11.3986 19.8271 -24.3937 5.0491 24.4953
0.154384 0.973655 -0.277904 13.3910 4.5260 0.1290 -15.9077 -4.3436 -1.9663 -4.9482 0.1241 -2.6809 22.5050 6.6160 -6.6503 -19.0825 -7.5564 -1.7100 9.1409 -2.5996 -16.7241 -3.3489 -14.6178 -37.4545 0.0000 10.9043 6.4350 0 0 0 0 0 0 0 0 0 0 0 0 0 0 0 0 0 0 0 0 0 -2.3542 5.4844 -22.7789 -5.1403 13.2387 25.4954 0.0000 -9.2285 -6.9616 0 0 0 0 0 0 0 0 0 0 0 0 0 0 0 0 0 0 0 0 0 -20.4957 5.2987 4.1003 27.5262 -20.4265 -8.6129 16.4408 -16.9602 -3.6701 -11.4127 19.8271 -24.3936 5.0547 24.4892
0.154394 0.973648 -0.277894 13.3895 4.5328 0.1266 -15.9148 -4.3432 -1.9740 -4.9322 0.1243 -2.6891 22.4998 6.6139 -6.6371 -19.0783 -7.5333 -1.7153 9.1538 -2.6022 -16.7205 -3.3397 -14.6179 -37.4826 0.0000 10.8542 6.4007 0 0 0 0 0 0 0 0 0 0 0 0 0 0 0 0 0 0 0 0 0 -2.3868 5.4207 -22.9029 -5.1274 13.3524 25.4619 0.0000 -9.2249 -6.9686 0 0 0 0 0 0 0 0 0 0 0 0 0 0 0 0 0 0 0 0 0 -20.5111 5.3062 4.1194 27.5574 -20.4254 -8.6154 16.4439 -16.9562 -3.6720 -11.4291 19.8266 -24.3947 5.0549 24.5103
0.154371 0.973668 -0.277891 13.3978 4.5353 0.1276 -15.8874 -4.3485 -1.9769 -5.0043 0.1215 -2.6896 22.5341 6.6255 -6.6208 -19.0751 -7.5045 -1.7272 9.1566 -2.6077 -16.7171 -3.3531 -14.6055 -37.4630 0.0000 10.8473 6.4517 0 0 0 0 0 0 0 0 0 0 0 0 0 0 0 0 0 0 0 0 0 -2.4073 5.4180 -22.9303 -5.1266 13.3752 25.4433 0.0000 -9.1877 -6.9789 0 0 0 0 0 0 0 0 0 0 0 0 0 0 0 0 0 0 0 0 0 -20.5010 5.2967 4.0883 27.5199 -20.4211 -8.6066 16.4446 -16.9606 -3.6715 -11.4245 19.8199 -24.3883 5.0652 24.4890
0.154353 0.973653 -0.277894 13.3926 4.5337 0.1294 -15.9155 -4.3571 -1.9729 -4.9447 0.1270 -2.6870 22.5122 6.6192 -6.6164 -19.0779 -7.4989 -1.7200 9.1551 -2.6083 -16.7264 -3.3507 -14.6014 -37.4473 0.0000 10.7573 6.4533 0 0 0 0 0 0 0 0 0 0 0 0 0 0 0 0 0 0 0 0 0 -2.4067 5.4192 -22.9288 -5.1443 13.3747 25.4473 0.0000 -9.2048 -7.0831 0 0 0 0 0 0 0 0 0 0 0 0 0 0 0 0 0 0 0 0 0 -20.4942 5.2965 4.0944 27.5169 -20.4253 -8.6137 16.4662 -16.9554 -3.6730 -11.4291 19.8201 -24.3942 5.0669 24.5117
0.154313 0.973653 -0.277889 13.3997 4.5186 0.1304 -15.8953 -4.3630 -1.9699 -5.0023 0.1372 -2.6831 22.5284 6.6053 -6.5894 -19.0643 -7.4981 -1.7175 9.1661 -2.6145 -16.7209 -3.3533 -14.5915 -37.4347 -0.0000 10.7163 6.4764 0 0 0 0 0 0 0 0 0 0 0 0 0 0 0 0 0 0 0 0 0 -2.4130 5.4185 -22.9160 -5.1462 13.3830 25.4591 0.0000 -9.2386 -7.1919 0 0 0 0 0 0 0 0 0 0 0 0 0 0 0 0 0 0 0 0 0 -20.4950 5.3040 4.1140 27.5101 -20.4247 -8.6217 16.4630 -16.9593 -3.6638 -11.3986 19.8070 -24.3961 5.0538 24.5146
0.15433 0.973637 -0.277896 13.3923 4.5192 0.1284 -15.9179 -4.3627 -1.9721 -4.9458 0.1394 -2.6870 22.5011 6.5860 -6.5745 -19.0676 -7.5026 -1.7029 9.1660 -2.6091 -16.7201 -3.3289 -14.5944 -37.4653 0.0000 10.6724 6.4712 0 0 0 0 0 0 0 0 0 0 0 0 0 0 0 0 0 0 0 0 0 -2.4040 5.4028 -22.8677 -5.1753 13.3986 25.4912 0.0000 -9.2592 -7.2511 0 0 0 0 0 0 0 0 0 0 0 0 0 0 0 0 0 0 0 0 0 -20.5087 5.3127 4.1344 27.5515 -20.4291 -8.6197 16.4432 -16.9542 -3.6667 -11.4222 19.8125 -24.4004 5.0605 24.5328
0.15432 0.973643 -0.277914 13.3957 4.5251 0.1300 -15.9232 -4.3675 -1.9758 -4.9453 0.1450 -2.6912 22.5042 6.5672 -6.5519 -19.0728 -7.5090 -1.6995 9.1575 -2.6227 -16.7137 -3.3201 -14.5767 -37.4535 0.0000 10.6564 6.4895 0 0 0 0 0 0 0 0 0 0 0 0 0 0 0 0 0 0 0 0 0 -2.3999 5.4152 -22.8891 -5.1661 13.3803 25.4851 -0.0000 -9.2784 -7.3664 0 0 0 0 0 0 0 0 0 0 0 0 0 0 0 0 0 0 0 0 0 -20.4956 5.3013 4.1023 27.5140 -20.4269 -8.6185 16.4612 -16.9571 -3.6710 -11.4426 19.8111 -24.3954 5.0615 24.5148
0.154297 0.973653 -0.277924 13.4007 4.5253 0.1313 -15.8903 -4.3917 -1.9725 -5.0115 0.1857 -2.6871 22.5147 6.5540 -6.5341 -19.0601 -7.5064 -1.7105 9.1680 -2.6424 -16.7121 -3.3472 -14.5824 -37.4358 0.0000 10.7106 6.4939 0 0 0 0 0 0 0 0 0 0 0 0 0 0 0 0 0 0 0 0 0 -2.4227 5.3955 -22.8406 -5.1602 13.3820 25.5274 -0.0000 -9.3368 -7.5107 0 0 0 0 0 0 0 0 0 0 0 0 0 0 0 0 0 0 0 0 0 -20.4974 5.2989 4.0944 27.5056 -20.4227 -8.6179 16.4512 -16.9606 -3.6688 -11.4268 19.8070 -24.3958 5.0667 24.5232
0.154277 0.973655 -0.277909 13.3973 4.5266 0.1314 -15.9266 -4.3977 -1.9747 -4.9475 0.1815 -2.6908 22.5086 6.5764 -6.5216 -19.0627 -7.4384 -1.7167 9.1677 -2.6392 -16.7091 -3.3411 -14.5713 -37.4206 0.0000 10.7075 6.5199 0 0 0 0 0 0 0 0 0 0 0 0 0 0 0 0 0 0 0 0 0 -2.3992 5.4169 -22.8171 -5.1816 13.3546 25.5369 0.0000 -9.3242 -7.5915 0 0 0 0 0 0 0 0 0 0 0 0 0 0 0 0 0 0 0 0 0 -20.4934 5.3013 4.1018 27.5058 -20.4209 -8.6215 16.4570 -16.9492 -3.6648 -11.4193 19.7920 -24.3934 5.0701 24.4869
0.154241 0.973645 -0.277899 13.3996 4.5154 0.1298 -15.9387 -4.3993 -1.9719 -4.9378 0.1844 -2.6889 22.5063 6.5569 -6.4948 -19.0659 -7.4446 -1.7011 9.1697 -2.6328 -16.7133 -3.3246 -14.5744 -37.4235 0.0000 10.6691 6.4949 0 0 0 0 0 0 0 0 0 0 0 0 0 0 0 0 0 0 0 0 0 -2.3972 5.4106 -22.8592 -5.1924 13.3771 25.4894 0.0000 -9.3044 -7.5794 0 0 0 0 0 0 0 0 0 0 0 0 0 0 0 0 0 0 0 0 0 -20.4929 5.3106 4.1204 27.5062 -20.4255 -8.6279 16.4544 -16.9514 -3.6572 -11.3984 19.7900 -24.3983 5.0568 24.5193
